%
M48
M72
T01C0.0236
T02C0.0276
T03C0.0315
T04C0.0320
T05C0.0400
T06C0.0591
T07C0.1102
%
T01
X2125Y6100
X11125Y6100
X12625Y6600
X13125Y6100
X13125Y5100
X12125Y2100
X17125Y7600
X16625Y8600
X13125Y11600
X12625Y8600
X17625Y14600
T02
X10859Y16100
X8891Y16100
T03
X9375Y8100
X8375Y8100
X10375Y8100
X11375Y8100
T04
X14125Y6600
X15125Y6600
X16125Y6600
X17125Y6600
X17125Y9600
X16125Y9600
X15125Y9600
X14125Y9600
X11625Y5100
X10375Y2350
X9375Y2350
X7625Y5100
X5625Y8100
X5625Y12100
X13125Y16100
X17125Y16100
T05
X16625Y13100
X15625Y13100
X14625Y13100
X14625Y12100
X15625Y12100
X16625Y12100
T06
X2775Y1100
X2775Y3600
X5875Y3600
X6125Y2350
X5875Y1100
X13625Y2350
X13875Y1100
X13875Y3600
X16975Y3600
X16975Y1100
T07
X3625Y15100
M30
