G75*
%MOIN*%
%OFA0B0*%
%FSLAX25Y25*%
%IPPOS*%
%LPD*%
%AMOC8*
5,1,8,0,0,1.08239X$1,22.5*
%
%ADD10C,0.11624*%
%ADD11R,0.09458X0.09458*%
%ADD12OC8,0.06600*%
%ADD13OC8,0.07200*%
%ADD14C,0.06112*%
%ADD15R,0.05324X0.05324*%
%ADD16C,0.05324*%
%ADD17C,0.05400*%
%ADD18R,0.04362X0.04362*%
D10*
X0036250Y0151000D03*
D11*
X0027750Y0011000D03*
X0027750Y0036000D03*
X0058750Y0036000D03*
X0061250Y0023500D03*
X0058750Y0011000D03*
X0136250Y0023500D03*
X0138750Y0011000D03*
X0138750Y0036000D03*
X0169750Y0036000D03*
X0169750Y0011000D03*
D12*
X0166250Y0121000D03*
X0156250Y0121000D03*
X0146250Y0121000D03*
X0146250Y0131000D03*
X0156250Y0131000D03*
X0166250Y0131000D03*
D13*
X0171250Y0161000D03*
X0131250Y0161000D03*
X0056250Y0121000D03*
X0056250Y0081000D03*
X0076250Y0051000D03*
X0093750Y0023500D03*
X0103750Y0023500D03*
X0116250Y0051000D03*
D14*
X0108593Y0161000D03*
X0088907Y0161000D03*
D15*
X0083750Y0081000D03*
D16*
X0093750Y0081000D03*
X0103750Y0081000D03*
X0113750Y0081000D03*
D17*
X0141250Y0066000D03*
X0151250Y0066000D03*
X0161250Y0066000D03*
X0171250Y0066000D03*
X0171250Y0096000D03*
X0161250Y0096000D03*
X0151250Y0096000D03*
X0141250Y0096000D03*
D18*
X0126250Y0086000D03*
X0126250Y0066000D03*
X0131250Y0061000D03*
X0131250Y0051000D03*
X0111250Y0061000D03*
X0121250Y0021000D03*
X0171250Y0076000D03*
X0166250Y0086000D03*
X0131250Y0116000D03*
X0176250Y0146000D03*
X0021250Y0061000D03*
M02*
