G75*
%MOIN*%
%OFA0B0*%
%FSLAX25Y25*%
%IPPOS*%
%LPD*%
%AMOC8*
5,1,8,0,0,1.08239X$1,22.5*
%
%ADD10R,0.08858X0.08858*%
%ADD11OC8,0.06000*%
%ADD12OC8,0.06600*%
%ADD13C,0.05512*%
%ADD14C,0.01200*%
%ADD15R,0.04724X0.05512*%
%ADD16R,0.05512X0.04724*%
%ADD17R,0.04724X0.04724*%
%ADD18C,0.04724*%
%ADD19C,0.04800*%
%ADD20R,0.03762X0.03762*%
%ADD21C,0.01600*%
D10*
X0027750Y0011000D03*
X0027750Y0036000D03*
X0058750Y0036000D03*
X0061250Y0023500D03*
X0058750Y0011000D03*
X0136250Y0023500D03*
X0138750Y0011000D03*
X0138750Y0036000D03*
X0169750Y0036000D03*
X0169750Y0011000D03*
D11*
X0166250Y0121000D03*
X0156250Y0121000D03*
X0146250Y0121000D03*
X0146250Y0131000D03*
X0156250Y0131000D03*
X0166250Y0131000D03*
D12*
X0171250Y0161000D03*
X0131250Y0161000D03*
X0056250Y0121000D03*
X0056250Y0081000D03*
X0076250Y0051000D03*
X0093750Y0023500D03*
X0103750Y0023500D03*
X0116250Y0051000D03*
D13*
X0108593Y0161000D03*
X0088907Y0161000D03*
D14*
X0131171Y0161000D02*
X0147313Y0161000D01*
X0155581Y0161000D02*
X0168967Y0161000D01*
X0056250Y0118717D02*
X0056250Y0105331D01*
X0056250Y0097063D02*
X0056250Y0080921D01*
X0078533Y0051000D02*
X0091919Y0051000D01*
X0100187Y0051000D02*
X0116329Y0051000D01*
D15*
X0100287Y0051000D03*
X0092213Y0051000D03*
X0147213Y0161000D03*
X0155287Y0161000D03*
D16*
X0056250Y0105037D03*
X0056250Y0096963D03*
D17*
X0083750Y0081000D03*
D18*
X0093750Y0081000D03*
X0103750Y0081000D03*
X0113750Y0081000D03*
D19*
X0141250Y0066000D03*
X0151250Y0066000D03*
X0161250Y0066000D03*
X0171250Y0066000D03*
X0171250Y0096000D03*
X0161250Y0096000D03*
X0151250Y0096000D03*
X0141250Y0096000D03*
D20*
X0126250Y0086000D03*
X0126250Y0066000D03*
X0131250Y0061000D03*
X0131250Y0051000D03*
X0111250Y0061000D03*
X0121250Y0021000D03*
X0171250Y0076000D03*
X0166250Y0086000D03*
X0131250Y0116000D03*
X0176250Y0146000D03*
X0021250Y0061000D03*
D21*
X0056250Y0066000D01*
X0083750Y0081000D01*
X0093750Y0081000D02*
X0096250Y0071000D01*
X0161250Y0071000D01*
X0161250Y0066000D01*
X0171250Y0066000D02*
X0171250Y0076000D01*
X0136250Y0081000D01*
X0113750Y0081000D01*
X0126250Y0086000D02*
X0146250Y0086000D01*
X0151250Y0096000D01*
X0161250Y0096000D02*
X0156250Y0106000D01*
X0151250Y0111000D01*
X0146250Y0121000D01*
X0131250Y0116000D01*
X0146250Y0131000D02*
X0146250Y0146000D01*
X0106250Y0146000D01*
X0088907Y0161000D01*
X0056250Y0121000D01*
X0071250Y0091000D02*
X0086250Y0096000D01*
X0093750Y0081000D01*
X0071250Y0091000D02*
X0056250Y0081000D01*
X0111250Y0061000D02*
X0126250Y0066000D01*
X0131250Y0061000D02*
X0116250Y0051000D01*
X0131250Y0051000D02*
X0116250Y0031000D01*
X0136250Y0023500D01*
X0138750Y0036000D02*
X0166250Y0046000D01*
X0181250Y0046000D01*
X0181250Y0096000D01*
X0181250Y0136000D01*
X0171250Y0141000D01*
X0161250Y0141000D01*
X0156250Y0131000D01*
X0166250Y0121000D02*
X0166250Y0086000D01*
X0171250Y0096000D02*
X0181250Y0096000D01*
X0176250Y0146000D02*
X0146250Y0146000D01*
X0131250Y0161000D02*
X0108593Y0161000D01*
X0116250Y0031000D02*
X0081250Y0031000D01*
X0061250Y0023500D01*
X0058750Y0011000D02*
X0111250Y0011000D01*
X0121250Y0021000D01*
M02*
